<svg data-name="Layer 1" viewBox="0 0 512 512" xmlns="http://www.w3.org/2000/svg"><path d="m441.06 175.42-30-44.08c-.11-.16-.29-.25-.41-.4a5.84 5.84 0 0 0-.91-.88 6.38 6.38 0 0 0-1-.66 6.75 6.75 0 0 0-1.08-.43 108 108 0 0 1-1.81-.37H297.12a43.69 43.69 0 0 0-34.41 16.63l-6.71 8.45-6.71-8.45a43.69 43.69 0 0 0-34.41-16.63H106.1a5.6 5.6 0 0 0-.59.12 7 7 0 0 0-1.19.24 6.1 6.1 0 0 0-1.12.45 6.17 6.17 0 0 0-1 .64 7 7 0 0 0-.91.89c-.12.15-.3.24-.41.4l-30 44.08a6.33 6.33 0 0 0-1.02 3.58v198.13a6.27 6.27 0 0 0 6.26 6.27h359.76a6.27 6.27 0 0 0 6.26-6.27V179a6.33 6.33 0 0 0-1.08-3.58ZM272.52 153a31.24 31.24 0 0 1 24.6-11.88h102.52V342H297.12a43.69 43.69 0 0 0-34.41 16.64l-.45.56V165.93Zm-160.16-11.87h102.52a31.24 31.24 0 0 1 24.6 11.87l10.26 12.92v193.26l-.45-.56A43.69 43.69 0 0 0 214.88 342H112.36Zm-30 39.75 17.46-25.67v193a6.26 6.26 0 0 0 6.26 6.27h108.8a31.24 31.24 0 0 1 24.6 11.88l3.56 4.48H82.38Zm347.24 190H269l3.56-4.48a31.24 31.24 0 0 1 24.6-11.88H405.9a6.26 6.26 0 0 0 6.26-6.27v-193l17.46 25.67Z" fill="#00bfff" class="fill-000000"></path></svg>